<?xml version="1.0" standalone="no"?>
<!DOCTYPE svg PUBLIC "-//W3C//DTD SVG 20010904//EN"
 "http://www.w3.org/TR/2001/REC-SVG-20010904/DTD/svg10.dtd">
<svg version="1.0" xmlns="http://www.w3.org/2000/svg"
 width="473.000000pt" height="337.000000pt" viewBox="0 0 473.000000 337.000000"
 preserveAspectRatio="xMidYMid meet">

<g transform="translate(0.000000,337.000000) scale(0.100000,-0.100000)"
fill="#000000" stroke="none">
<path d="M1760 3352 c-87 -23 -146 -59 -210 -129 -40 -44 -223 -352 -757
-1278 -388 -671 -720 -1252 -739 -1291 -44 -91 -59 -177 -44 -264 22 -135 115
-267 228 -324 116 -59 35 -56 1642 -56 1612 0 1536 -3 1640 57 66 38 135 116
176 199 32 65 37 85 41 166 4 73 1 106 -14 153 -12 37 -207 385 -505 900 -267
462 -502 872 -523 910 -21 39 -51 90 -66 115 -35 57 -240 412 -269 465 -119
217 -179 289 -283 340 -116 56 -203 67 -317 37z m245 -165 c28 -14 64 -40 82
-59 37 -39 1474 -2524 1493 -2582 43 -133 -23 -289 -153 -358 l-42 -23 -1510
0 -1510 0 -42 23 c-66 35 -110 79 -140 140 -37 76 -39 184 -3 252 40 77 1442
2504 1463 2532 26 35 90 78 142 95 61 20 160 11 220 -20z"/>
</g>
</svg>
