<?xml version="1.0" encoding="UTF-8"?>
<!DOCTYPE svg PUBLIC "-//W3C//DTD SVG 1.1//EN" "http://www.w3.org/Graphics/SVG/1.1/DTD/svg11.dtd">
<svg xmlns="http://www.w3.org/2000/svg" version="1.1" width="985px" height="701px" style="shape-rendering:geometricPrecision; text-rendering:geometricPrecision; image-rendering:optimizeQuality; fill-rule:evenodd; clip-rule:evenodd" xmlns:xlink="http://www.w3.org/1999/xlink">
<g><path style="opacity:0.988" fill="#a31dcb" d="M 388.5,-0.5 C 389.167,-0.5 389.833,-0.5 390.5,-0.5C 428.698,1.70775 456.698,19.7077 474.5,53.5C 479.331,63.1669 484.664,72.5002 490.5,81.5C 507.929,112.033 525.596,142.366 543.5,172.5C 548.997,183.498 554.997,194.165 561.5,204.5C 632.572,326.763 703.072,449.429 773,572.5C 785.275,607.673 779.775,639.673 756.5,668.5C 740.135,686.016 720.135,696.682 696.5,700.5C 491.5,700.5 286.5,700.5 81.5,700.5C 36.3122,691.646 8.97886,664.646 -0.5,619.5C -0.5,610.833 -0.5,602.167 -0.5,593.5C 1.56776,583.596 4.73442,573.93 9,564.5C 109.919,390.33 210.586,215.997 311,41.5C 329.964,14.7689 355.797,0.768872 388.5,-0.5 Z"/></g>
<g><path style="opacity:1" fill="#fefefe" d="M 381.5,31.5 C 408.132,30.0653 428.632,40.3986 443,62.5C 541.081,232.997 639.414,403.33 738,573.5C 753.75,603.162 749.917,629.996 726.5,654C 717.637,660.961 707.637,665.628 696.5,668C 491.833,668.667 287.167,668.667 82.5,668C 50.4703,660.297 33.137,639.963 30.5,607C 30.8323,595.337 33.999,584.503 40,574.5C 139.333,402.5 238.667,230.5 338,58.5C 349.038,43.74 363.538,34.74 381.5,31.5 Z"/></g>
<g><path style="opacity:0.974" fill="#fe78ef" d="M 597.5,97.5 C 601.806,107.449 607.14,116.782 613.5,125.5C 699.976,275.778 786.476,426.112 873,576.5C 885.705,609.533 881.538,640.2 860.5,668.5C 848.1,682.037 833.1,691.537 815.5,697C 809.966,697.86 804.632,699.027 799.5,700.5C 765.167,700.5 730.833,700.5 696.5,700.5C 720.135,696.682 740.135,686.016 756.5,668.5C 770.837,668.667 785.171,668.5 799.5,668C 829.653,661.509 845.987,642.842 848.5,612C 847.861,599.417 844.028,587.917 837,577.5C 755.392,435.94 673.559,294.607 591.5,153.5C 586.401,141.748 580.068,130.748 572.5,120.5C 567.095,107.542 559.095,96.3751 548.5,87C 529.97,74.7793 510.636,72.946 490.5,81.5C 484.664,72.5002 479.331,63.1669 474.5,53.5C 516.386,35.5641 552.886,43.2307 584,76.5C 588.524,83.5647 593.024,90.5647 597.5,97.5 Z"/></g>
<g><path style="opacity:0.97" fill="#39b4e0" d="M 984.5,607.5 C 984.5,613.5 984.5,619.5 984.5,625.5C 977.376,667.29 953.043,692.29 911.5,700.5C 874.167,700.5 836.833,700.5 799.5,700.5C 804.632,699.027 809.966,697.86 815.5,697C 833.1,691.537 848.1,682.037 860.5,668.5C 876.503,668.667 892.503,668.5 908.5,668C 935.889,661.73 950.556,644.563 952.5,616.5C 952.168,610.339 951.001,604.339 949,598.5C 860.733,444.575 772.066,290.908 683,137.5C 663.061,115.432 639.895,111.432 613.5,125.5C 607.14,116.782 601.806,107.449 597.5,97.5C 615.374,86.8252 634.708,82.9919 655.5,86C 676.171,89.7512 693.338,99.5846 707,115.5C 712.166,122.495 716.833,129.828 721,137.5C 807.253,287.004 893.253,436.67 979,586.5C 981.295,593.514 983.128,600.514 984.5,607.5 Z"/></g>
<g><path style="opacity:0.968" fill="#3ab4e0" d="M 572.5,120.5 C 580.068,130.748 586.401,141.748 591.5,153.5C 581.5,170.5 571.5,187.5 561.5,204.5C 554.997,194.165 548.997,183.498 543.5,172.5C 553.167,155.167 562.833,137.833 572.5,120.5 Z"/></g>
</svg>
